<svg width="328" height="97" viewBox="0 0 328 97" fill="none" xmlns="http://www.w3.org/2000/svg">
    <path d="M316.331 97H11.4897C5.15567 97 0 91.8396 0 85.5225V11.4605C0 5.141 5.15567 0 11.4897 0H316.331C322.662 0 328 5.141 328 11.4605V85.5225C328 91.8396 322.662 97 316.331 97Z"
          fill="#A6A6A6"/>
    <path d="M325.648 85.5251C325.648 90.6564 321.484 94.8128 316.333 94.8128H11.4897C6.34132 94.8128 2.16235 90.6564 2.16235 85.5251V11.4583C2.16235 6.32945 6.34132 2.15845 11.4897 2.15845H316.331C321.484 2.15845 325.646 6.32945 325.646 11.4583L325.648 85.5251Z"
          fill="black"/>
    <path d="M73.1999 47.9758C73.1294 40.16 79.6117 36.3576 79.9081 36.1806C76.2369 30.8383 70.5467 30.1084 68.5471 30.0502C63.7681 29.5482 59.1323 32.9044 56.6978 32.9044C54.2148 32.9044 50.4658 30.0987 46.4254 30.1811C41.226 30.2612 36.3618 33.2657 33.6941 37.9314C28.1886 47.4447 32.2946 61.4248 37.5694 69.1145C40.2079 72.8805 43.2911 77.0855 47.3268 76.9376C51.2749 76.7751 52.7497 74.4253 57.5142 74.4253C62.235 74.4253 63.6199 76.9376 67.7356 76.843C71.9729 76.7751 74.6406 73.06 77.1869 69.26C80.2361 64.9435 81.4606 60.6925 81.5092 60.4742C81.4096 60.4403 73.2801 57.3436 73.1999 47.9758Z"
          fill="white"/>
    <path d="M65.4251 24.9917C67.5486 22.3412 69.0015 18.7353 68.5982 15.0759C65.5247 15.2117 61.681 17.1978 59.4676 19.7901C57.5093 22.0745 55.76 25.8187 56.2119 29.3398C59.6644 29.5968 63.2093 27.601 65.4251 24.9917Z"
          fill="white"/>
    <path d="M130.337 76.3969H124.82L121.797 66.9176H111.292L108.412 76.3969H103.041L113.449 44.125H119.878L130.337 76.3969ZM120.886 62.9406L118.153 54.5137C117.864 53.6528 117.322 51.6255 116.523 48.4342H116.425C116.107 49.8068 115.594 51.8341 114.89 54.5137L112.205 62.9406H120.886Z"
          fill="white"/>
    <path d="M157.105 64.4759C157.105 68.4335 156.033 71.5617 153.89 73.8582C151.971 75.9025 149.587 76.9234 146.742 76.9234C143.671 76.9234 141.465 75.8225 140.122 73.6206H140.024V85.8789H134.844V60.7875C134.844 58.2994 134.779 55.7459 134.652 53.1269H139.208L139.497 56.8153H139.594C141.322 54.0363 143.943 52.6492 147.461 52.6492C150.212 52.6492 152.508 53.7331 154.345 55.9035C156.186 58.0763 157.105 60.933 157.105 64.4759ZM151.828 64.665C151.828 62.4001 151.317 60.5328 150.292 59.0633C149.172 57.5307 147.668 56.7644 145.783 56.7644C144.505 56.7644 143.343 57.1912 142.306 58.0327C141.266 58.8814 140.586 59.9896 140.267 61.3622C140.107 62.0024 140.027 62.5262 140.027 62.9384V66.8184C140.027 68.5111 140.547 69.9394 141.587 71.1058C142.627 72.2723 143.977 72.8543 145.639 72.8543C147.59 72.8543 149.109 72.1025 150.195 70.6039C151.283 69.1028 151.828 67.124 151.828 64.665Z"
          fill="white"/>
    <path d="M183.92 64.4759C183.92 68.4335 182.849 71.5617 180.704 73.8582C178.787 75.9025 176.403 76.9234 173.558 76.9234C170.487 76.9234 168.281 75.8225 166.94 73.6206H166.843V85.8789H161.663V60.7875C161.663 58.2994 161.597 55.7459 161.471 53.1269H166.026L166.315 56.8153H166.413C168.138 54.0363 170.759 52.6492 174.28 52.6492C177.028 52.6492 179.324 53.7331 181.165 55.9035C183 58.0763 183.92 60.933 183.92 64.4759ZM178.643 64.665C178.643 62.4001 178.131 60.5328 177.105 59.0633C175.985 57.5307 174.486 56.7644 172.598 56.7644C171.318 56.7644 170.159 57.1912 169.119 58.0327C168.079 58.8814 167.401 59.9896 167.083 61.3622C166.925 62.0024 166.843 62.5262 166.843 62.9384V66.8184C166.843 68.5111 167.363 69.9394 168.398 71.1058C169.437 72.2698 170.788 72.8543 172.455 72.8543C174.406 72.8543 175.925 72.1025 177.011 70.6039C178.099 69.1028 178.643 67.124 178.643 64.665Z"
          fill="white"/>
    <path d="M213.902 67.347C213.902 70.0921 212.947 72.3255 211.03 74.0497C208.924 75.9339 205.991 76.8749 202.223 76.8749C198.744 76.8749 195.954 76.2056 193.843 74.8645L195.043 70.5553C197.317 71.9278 199.813 72.6165 202.531 72.6165C204.482 72.6165 206.001 72.1752 207.092 71.2973C208.178 70.4195 208.72 69.241 208.72 67.7714C208.72 66.4619 208.273 65.3585 207.376 64.4637C206.484 63.5689 204.995 62.7371 202.915 61.9684C197.254 59.861 194.426 56.774 194.426 52.7146C194.426 50.0616 195.417 47.8864 197.402 46.1937C199.38 44.4987 202.019 43.6523 205.318 43.6523C208.26 43.6523 210.705 44.164 212.656 45.1849L211.361 49.3996C209.538 48.4102 207.478 47.9155 205.172 47.9155C203.35 47.9155 201.926 48.3641 200.906 49.2565C200.043 50.0543 199.611 51.0268 199.611 52.1786C199.611 53.4542 200.104 54.5091 201.095 55.3384C201.958 56.1047 203.525 56.9341 205.799 57.8289C208.581 58.9468 210.624 60.2539 211.939 61.7525C213.248 63.2463 213.902 65.116 213.902 67.347Z"
          fill="white"/>
    <path d="M231.029 57.007H225.319V68.3051C225.319 71.1787 226.325 72.6143 228.341 72.6143C229.267 72.6143 230.035 72.5343 230.642 72.3743L230.786 76.3003C229.765 76.6811 228.422 76.8726 226.757 76.8726C224.712 76.8726 223.113 76.2494 221.959 75.0054C220.81 73.7589 220.231 71.6686 220.231 68.7319V57.0022H216.83V53.1222H220.231V48.8615L225.319 47.3289V53.1222H231.029V57.007Z"
          fill="white"/>
    <path d="M256.79 64.5702C256.79 68.1471 255.765 71.0838 253.719 73.3803C251.574 75.7446 248.726 76.9232 245.176 76.9232C241.755 76.9232 239.032 75.7907 237.001 73.5258C234.969 71.2608 233.954 68.4017 233.954 64.9558C233.954 61.3498 234.999 58.3962 237.095 56.0997C239.187 53.8008 242.011 52.6514 245.56 52.6514C248.981 52.6514 251.734 53.7838 253.811 56.0512C255.799 58.2507 256.79 61.0904 256.79 64.5702ZM251.416 64.7376C251.416 62.5914 250.956 60.7509 250.026 59.2158C248.94 57.3583 247.387 56.4319 245.376 56.4319C243.293 56.4319 241.712 57.3607 240.626 59.2158C239.695 60.7533 239.236 62.623 239.236 64.8346C239.236 66.9807 239.695 68.8213 240.626 70.3539C241.746 72.2114 243.31 73.1378 245.329 73.1378C247.307 73.1378 248.86 72.192 249.98 70.3054C250.935 68.7412 251.416 66.8813 251.416 64.7376Z"
          fill="white"/>
    <path d="M273.627 57.6738C273.115 57.5792 272.568 57.5307 271.994 57.5307C270.172 57.5307 268.763 58.217 267.772 59.5919C266.909 60.8044 266.477 62.337 266.477 64.1873V76.3972H261.299L261.348 60.4552C261.348 57.7732 261.282 55.3312 261.153 53.1293H265.665L265.855 57.5816H265.998C266.545 56.0514 267.407 54.8195 268.588 53.8956C269.742 53.0638 270.989 52.6492 272.332 52.6492C272.811 52.6492 273.243 52.6831 273.627 52.7437V57.6738Z"
          fill="white"/>
    <path d="M296.794 63.6608C296.794 64.5871 296.733 65.368 296.604 66.0058H281.064C281.125 68.3047 281.876 70.0628 283.319 71.2753C284.629 72.3593 286.322 72.9025 288.402 72.9025C290.703 72.9025 292.802 72.5363 294.69 71.8015L295.501 75.3905C293.295 76.3508 290.691 76.8285 287.685 76.8285C284.07 76.8285 281.232 75.7664 279.167 73.6445C277.106 71.5226 276.074 68.6733 276.074 65.0988C276.074 61.5898 277.034 58.6677 278.955 56.3373C280.967 53.8492 283.686 52.6052 287.107 52.6052C290.467 52.6052 293.011 53.8492 294.738 56.3373C296.106 58.3137 296.794 60.7581 296.794 63.6608ZM291.854 62.3198C291.888 60.7872 291.551 59.4631 290.848 58.3452C289.952 56.9072 288.574 56.1894 286.72 56.1894C285.027 56.1894 283.649 56.8902 282.597 58.2967C281.735 59.4146 281.222 60.7556 281.064 62.3173H291.854V62.3198Z"
          fill="white"/>
    <path d="M119.173 24.2721C119.173 27.1263 118.316 29.2749 116.603 30.7177C115.016 32.0491 112.762 32.7159 109.841 32.7159C108.393 32.7159 107.154 32.6529 106.117 32.5268V16.9316C107.47 16.7134 108.928 16.6018 110.502 16.6018C113.284 16.6018 115.381 17.2056 116.795 18.4133C118.379 19.7786 119.173 21.7307 119.173 24.2721ZM116.489 24.3424C116.489 22.4921 115.998 21.0735 115.016 20.0841C114.035 19.0971 112.601 18.6024 110.713 18.6024C109.912 18.6024 109.229 18.6558 108.663 18.7673V30.6232C108.976 30.6717 109.55 30.6935 110.383 30.6935C112.332 30.6935 113.836 30.1527 114.895 29.0712C115.954 27.9896 116.489 26.4134 116.489 24.3424Z"
          fill="white"/>
    <path d="M133.409 26.7648C133.409 28.523 132.906 29.9634 131.9 31.0935C130.845 32.255 129.448 32.8346 127.704 32.8346C126.023 32.8346 124.684 32.2793 123.685 31.1638C122.689 30.0507 122.191 28.6466 122.191 26.954C122.191 25.1837 122.704 23.7312 123.734 22.6035C124.764 21.4759 126.149 20.9109 127.893 20.9109C129.575 20.9109 130.926 21.4662 131.948 22.5793C132.92 23.6608 133.409 25.0576 133.409 26.7648ZM130.768 26.8473C130.768 25.7924 130.539 24.8879 130.085 24.1337C129.55 23.2219 128.79 22.766 127.801 22.766C126.778 22.766 126.001 23.2219 125.466 24.1337C125.009 24.8879 124.783 25.807 124.783 26.8934C124.783 27.9482 125.012 28.8528 125.466 29.6069C126.018 30.5187 126.785 30.9746 127.777 30.9746C128.749 30.9746 129.511 30.5115 130.061 29.5827C130.532 28.814 130.768 27.9022 130.768 26.8473Z"
          fill="white"/>
    <path d="M152.496 21.1438L148.912 32.5753H146.58L145.095 27.6113C144.719 26.3721 144.412 25.1402 144.174 23.918H144.128C143.907 25.1742 143.601 26.4036 143.207 27.6113L141.631 32.5753H139.271L135.901 21.1438H138.518L139.813 26.5782C140.127 27.8635 140.384 29.0881 140.591 30.2473H140.637C140.826 29.2918 141.14 28.0745 141.582 26.6025L143.207 21.1462H145.282L146.84 26.4861C147.216 27.7883 147.522 29.042 147.758 30.2497H147.829C148.001 29.0736 148.261 27.8198 148.606 26.4861L149.996 21.1462H152.496V21.1438Z"
          fill="white"/>
    <path d="M165.696 32.5751H163.15V26.0276C163.15 24.01 162.382 23.0012 160.842 23.0012C160.086 23.0012 159.476 23.2776 159.002 23.833C158.533 24.3883 158.295 25.043 158.295 25.7924V32.5727H155.749V24.4101C155.749 23.4062 155.717 22.3173 155.657 21.1388H157.894L158.013 22.926H158.084C158.38 22.3707 158.823 21.9124 159.403 21.5462C160.093 21.1194 160.866 20.9036 161.711 20.9036C162.78 20.9036 163.67 21.2479 164.377 21.939C165.256 22.7854 165.696 24.0488 165.696 25.7269V32.5751Z"
          fill="white"/>
    <path d="M172.718 32.5752H170.174V15.8984H172.718V32.5752Z" fill="white"/>
    <path d="M187.708 26.7648C187.708 28.523 187.205 29.9634 186.2 31.0935C185.145 32.255 183.746 32.8346 182.004 32.8346C180.32 32.8346 178.981 32.2793 177.985 31.1638C176.989 30.0507 176.491 28.6466 176.491 26.954C176.491 25.1837 177.003 23.7312 178.034 22.6035C179.064 21.4759 180.449 20.9109 182.191 20.9109C183.874 20.9109 185.223 21.4662 186.248 22.5793C187.22 23.6608 187.708 25.0576 187.708 26.7648ZM185.065 26.8473C185.065 25.7924 184.836 24.8879 184.382 24.1337C183.85 23.2219 183.087 22.766 182.101 22.766C181.075 22.766 180.298 23.2219 179.766 24.1337C179.309 24.8879 179.083 25.807 179.083 26.8934C179.083 27.9482 179.312 28.8528 179.766 29.6069C180.317 30.5187 181.085 30.9746 182.076 30.9746C183.048 30.9746 183.809 30.5115 184.358 29.5827C184.832 28.814 185.065 27.9022 185.065 26.8473Z"
          fill="white"/>
    <path d="M200.032 32.5751H197.745L197.556 31.2584H197.485C196.703 32.3084 195.588 32.8346 194.14 32.8346C193.059 32.8346 192.184 32.4878 191.525 31.7991C190.928 31.1735 190.629 30.3951 190.629 29.4711C190.629 28.0743 191.212 27.0098 192.386 26.2726C193.557 25.5354 195.204 25.174 197.325 25.191V24.9776C197.325 23.4717 196.533 22.7199 194.946 22.7199C193.817 22.7199 192.82 23.0037 191.96 23.5663L191.443 21.8979C192.507 21.2407 193.821 20.9109 195.372 20.9109C198.365 20.9109 199.866 22.4871 199.866 25.6396V29.8494C199.866 30.9916 199.922 31.901 200.032 32.5751ZM197.388 28.6466V26.8837C194.579 26.8352 193.175 27.6039 193.175 29.1874C193.175 29.784 193.336 30.2302 193.664 30.5284C193.992 30.8267 194.409 30.9746 194.907 30.9746C195.466 30.9746 195.989 30.7976 196.465 30.446C196.944 30.0919 197.238 29.6433 197.347 29.0928C197.374 28.9692 197.388 28.8188 197.388 28.6466Z"
          fill="white"/>
    <path d="M214.5 32.5752H212.24L212.121 30.7394H212.051C211.329 32.1362 210.1 32.8346 208.372 32.8346C206.992 32.8346 205.843 32.2939 204.932 31.2123C204.021 30.1308 203.567 28.7267 203.567 27.0025C203.567 25.1522 204.06 23.6536 205.051 22.509C206.011 21.442 207.187 20.9085 208.586 20.9085C210.124 20.9085 211.201 21.425 211.813 22.4605H211.861V15.8984H214.41V29.4954C214.41 30.6085 214.439 31.6343 214.5 32.5752ZM211.861 27.7543V25.8482C211.861 25.5184 211.837 25.2517 211.791 25.048C211.648 24.4369 211.339 23.9228 210.87 23.5081C210.396 23.0934 209.825 22.8849 209.167 22.8849C208.217 22.8849 207.473 23.2607 206.927 24.0149C206.385 24.7691 206.11 25.7318 206.11 26.9079C206.11 28.038 206.37 28.9546 206.893 29.6603C207.444 30.4121 208.188 30.7879 209.118 30.7879C209.954 30.7879 210.622 30.4751 211.13 29.847C211.621 29.2675 211.861 28.5691 211.861 27.7543Z"
          fill="white"/>
    <path d="M236.277 26.7648C236.277 28.523 235.774 29.9634 234.768 31.0935C233.713 32.255 232.319 32.8346 230.572 32.8346C228.893 32.8346 227.554 32.2793 226.553 31.1638C225.557 30.0507 225.059 28.6466 225.059 26.954C225.059 25.1837 225.572 23.7312 226.602 22.6035C227.632 21.4759 229.017 20.9109 230.764 20.9109C232.443 20.9109 233.796 21.4662 234.816 22.5793C235.788 23.6608 236.277 25.0576 236.277 26.7648ZM233.638 26.8473C233.638 25.7924 233.41 24.8879 232.955 24.1337C232.418 23.2219 231.66 22.766 230.669 22.766C229.649 22.766 228.871 23.2219 228.334 24.1337C227.877 24.8879 227.652 25.807 227.652 26.8934C227.652 27.9482 227.88 28.8528 228.334 29.6069C228.886 30.5187 229.654 30.9746 230.645 30.9746C231.617 30.9746 232.382 30.5115 232.931 29.5827C233.4 28.814 233.638 27.9022 233.638 26.8473Z"
          fill="white"/>
    <path d="M249.968 32.5751H247.424V26.0276C247.424 24.01 246.656 23.0012 245.113 23.0012C244.358 23.0012 243.748 23.2776 243.276 23.833C242.805 24.3883 242.569 25.043 242.569 25.7924V32.5727H240.021V24.4101C240.021 23.4062 239.992 22.3173 239.931 21.1388H242.166L242.285 22.926H242.356C242.655 22.3707 243.097 21.9124 243.675 21.5462C244.367 21.1194 245.138 20.9036 245.986 20.9036C247.052 20.9036 247.941 21.2479 248.648 21.939C249.53 22.7854 249.968 24.0488 249.968 25.7269V32.5751Z"
          fill="white"/>
    <path d="M267.104 23.047H264.3V28.6002C264.3 30.0116 264.798 30.7172 265.785 30.7172C266.241 30.7172 266.62 30.6784 266.919 30.5984L266.985 32.5263C266.482 32.7154 265.821 32.81 265.007 32.81C264.001 32.81 263.219 32.5045 262.653 31.8934C262.084 31.2823 261.802 30.2541 261.802 28.8112V23.047H260.128V21.1433H261.802V19.0481L264.298 18.2964V21.1409H267.101V23.047H267.104Z"
          fill="white"/>
    <path d="M280.583 32.5752H278.035V26.0762C278.035 24.027 277.267 23.0013 275.729 23.0013C274.548 23.0013 273.742 23.5954 273.299 24.7836C273.224 25.0334 273.18 25.339 273.18 25.6979V32.5727H270.636V15.8984H273.18V22.7879H273.229C274.031 21.5341 275.18 20.9085 276.669 20.9085C277.724 20.9085 278.596 21.2528 279.288 21.944C280.151 22.8048 280.583 24.0852 280.583 25.7779V32.5752Z"
          fill="white"/>
    <path d="M294.488 26.3187C294.488 26.7746 294.454 27.1578 294.393 27.4706H286.757C286.791 28.6007 287.156 29.4615 287.863 30.0581C288.509 30.5916 289.342 30.8583 290.363 30.8583C291.492 30.8583 292.523 30.6789 293.451 30.3176L293.849 32.083C292.763 32.5534 291.485 32.7886 290.005 32.7886C288.232 32.7886 286.835 32.2673 285.824 31.2245C284.808 30.1818 284.306 28.7825 284.306 27.0268C284.306 25.3027 284.774 23.8671 285.72 22.7225C286.706 21.5003 288.04 20.8892 289.724 20.8892C291.371 20.8892 292.622 21.5003 293.468 22.7225C294.15 23.6925 294.488 24.8928 294.488 26.3187ZM292.059 25.6616C292.078 24.9074 291.91 24.2575 291.565 23.7094C291.123 23.0038 290.45 22.6497 289.539 22.6497C288.708 22.6497 288.03 22.9941 287.513 23.6852C287.09 24.2357 286.84 24.8928 286.757 25.6616H292.059Z"
          fill="white"/>
</svg>
