<svg width="2091" height="1149" viewBox="0 0 2091 1149" fill="none" xmlns="http://www.w3.org/2000/svg">
    <path d="M0.5 534.5V-5H2096.5C2189 30.3333 2377 111.8 2389 155C2401 198.2 2199 771.333 2096.5 1052.5C2096.5 1052.5 1522.5 960 1098 912C673.5 864 203 929.667 139 895C67.5 856.271 0.5 534.5 0.5 534.5Z"
          fill="url(#paint0_linear)"/>
    <mask id="mask0" mask-type="alpha" maskUnits="userSpaceOnUse" x="-2" y="-4" width="2393" height="1058">
        <path d="M1 535.5L-2 -4H2097C2189.5 31.3333 2377.5 112.8 2389.5 156C2401.5 199.2 2199.5 772.333 2097 1053.5C2097 1053.5 1225.5 948.5 800.5 878.5C517.5 883.5 203.5 930.667 139.5 896C68 857.271 1 535.5 1 535.5Z"
              fill="url(#paint1_linear)"/>
    </mask>
    <g mask="url(#mask0)">
        <rect x="-100.782" y="198" width="733.756" height="744.248" rx="120" transform="rotate(23.1164 -100.782 198)"
              fill="url(#paint2_linear)"/>
        <rect x="-283.003" y="292" width="733.756" height="744.248" rx="120" transform="rotate(22.2657 -283.003 292)"
              fill="url(#paint3_linear)"/>
    </g>
    <rect width="733.756" height="744.248" rx="120"
          transform="matrix(-0.393755 0.919215 0.919215 0.393755 1662.4 -346.992)" fill="url(#paint4_linear)"/>
    <rect width="733.756" height="744.248" rx="120" transform="matrix(-0.416412 0.909176 0.909176 0.416412 1873.54 -57)"
          fill="url(#paint5_linear)"/>
    <defs>
        <linearGradient id="paint0_linear" x1="1195.01" y1="-5" x2="1195.01" y2="1052.5" gradientUnits="userSpaceOnUse">
            <stop stop-color="#605DDF"/>
            <stop offset="1" stop-color="#28B6D5"/>
        </linearGradient>
        <linearGradient id="paint1_linear" x1="1195.51" y1="-4" x2="1195.51" y2="1053.5" gradientUnits="userSpaceOnUse">
            <stop stop-color="#605DDF"/>
            <stop offset="1" stop-color="#28B6D5"/>
        </linearGradient>
        <linearGradient id="paint2_linear" x1="597.623" y1="251.611" x2="-21.9839" y2="734.652"
                        gradientUnits="userSpaceOnUse">
            <stop stop-color="#438ADA"/>
            <stop offset="1" stop-color="#5A65DE"/>
        </linearGradient>
        <linearGradient id="paint3_linear" x1="427.622" y1="479.742" x2="34.3088" y2="342.538"
                        gradientUnits="userSpaceOnUse">
            <stop stop-color="#3F91D9"/>
            <stop offset="0.0001" stop-color="#3F91D9"/>
            <stop offset="1" stop-color="#4F76DB"/>
        </linearGradient>
        <linearGradient id="paint4_linear" x1="114.309" y1="290.581" x2="656.532" y2="251.421"
                        gradientUnits="userSpaceOnUse">
            <stop stop-color="#428CD9"/>
            <stop offset="1" stop-color="#4A7FDB"/>
        </linearGradient>
        <linearGradient id="paint5_linear" x1="710.625" y1="187.742" x2="317.312" y2="50.5383"
                        gradientUnits="userSpaceOnUse">
            <stop stop-color="#3F91D9"/>
            <stop offset="1" stop-color="#3F91D9" stop-opacity="0.7"/>
        </linearGradient>
    </defs>
</svg>
