<svg xmlns="http://www.w3.org/2000/svg" viewBox="0 0 170 150.16">
    <defs>
        <style>
            .cls-1 {
            fill: #fff;
            }

        </style>
    </defs>
    <title>Ресурс 1</title>
    <g id="Слой_2" data-name="Слой 2">
        <g id="Слой_1-2" data-name="Слой 1">
            <path class="cls-1"
                  d="M61.39,0A18.8,18.8,0,0,0,43.15,14.14c-.24,0-.41-.06-.65-.06A18.84,18.84,0,0,0,23.61,32.85a17.37,17.37,0,0,0,.5,4.1A23.19,23.19,0,0,0,11.89,68.89a23.31,23.31,0,0,0,2.69,41.94,21.11,21.11,0,0,0,20.84,25.25,19.67,19.67,0,0,0,3.54-.35A21.22,21.22,0,0,0,80.28,129V18.77A18.85,18.85,0,0,0,61.39,0ZM170,89.16a23.33,23.33,0,0,0-11.89-20.27,23,23,0,0,0,2.44-10.23A23.46,23.46,0,0,0,145.89,37a19.09,19.09,0,0,0,.5-4.1A18.84,18.84,0,0,0,127.5,14.08c-.24,0-.44.06-.65.06a18.87,18.87,0,0,0-37.13,4.63V129A21.22,21.22,0,0,0,131,135.73a19.67,19.67,0,0,0,3.54.35,21.11,21.11,0,0,0,20.84-25.25A23.46,23.46,0,0,0,170,89.16Z"/>
        </g>
    </g>
</svg>
