<svg width="2136" height="723" viewBox="0 0 2136 723" fill="none" xmlns="http://www.w3.org/2000/svg">
    <path d="M1057.5 55C1072.69 55 1085 42.6878 1085 27.5C1085 12.3122 1072.69 0 1057.5 0C1042.31 0 1030 12.3122 1030 27.5C1030 42.6878 1042.31 55 1057.5 55Z"
          fill="#3C3662"/>
    <path d="M1066.46 26.1381V26.1399L1067.57 27.2609C1067.87 27.5531 1067.87 28.0223 1067.58 28.3071L1067.57 28.3089L1057.79 38.1255V38.1256C1057.5 38.417 1057.03 38.4144 1056.75 38.1273V38.1255L1046.96 28.3088C1046.66 28.0166 1046.66 27.5475 1046.96 27.2627V27.2609L1048.07 26.1399C1048.37 25.8482 1048.84 25.8529 1049.13 26.1524C1049.13 26.1526 1049.13 26.1528 1049.13 26.153L1054.91 32.2368L1055.72 33.0902V31.913V17.4C1055.72 16.9869 1056.05 16.6582 1056.46 16.6582H1058.07C1058.48 16.6582 1058.81 16.9869 1058.81 17.4V31.913V33.0902L1059.62 32.2368L1065.4 26.1519V26.1513C1065.69 25.8484 1066.16 25.8436 1066.46 26.1381Z"
          fill="#48A4A1" stroke="#3C3662" stroke-width="0.940171"/>
    <path d="M0 140.221C0 140.221 975.641 12.0077 1014 39.9998C1052.36 67.9919 1062.36 68.0397 1103 40.0004C1143.64 11.9611 2136 140.221 2136 140.221V722.91C2136 722.91 238 689.573 119 609.096C7.62939e-06 528.62 0 173 0 173V140.221Z"
          fill="#3C3662"/>
    <mask id="mask0" mask-type="alpha" maskUnits="userSpaceOnUse" x="0" y="36" width="2136" height="687">
        <path d="M0 140.222C0 140.222 974.641 13.0077 1013 40.9998C1051.36 68.9919 1061.36 69.0397 1102 41.0004C1142.64 12.9611 2136 140.222 2136 140.222V722.911C2136 722.911 238 689.574 119 609.097C7.62939e-06 528.621 0 173.001 0 173.001V140.222Z"
              fill="#3C3662"/>
    </mask>
    <g mask="url(#mask0)">
        <path opacity="0.5"
              d="M328.695 236.961L-125.417 43.112C-186.37 17.0928 -256.875 45.4121 -282.894 106.365L-480.862 570.127C-506.881 631.08 -478.562 701.584 -417.609 727.604L36.5032 921.453C97.4562 947.472 167.961 919.152 193.98 858.199L391.948 394.438C417.968 333.485 389.648 262.98 328.695 236.961Z"
              fill="url(#paint0_linear)"/>
        <path opacity="0.5"
              d="M149.989 322.554L-306.951 135.468C-368.283 110.357 -438.36 139.72 -463.471 201.052L-654.532 667.702C-679.643 729.035 -650.28 799.111 -588.948 824.223L-132.008 1011.31C-70.6753 1036.42 -0.598572 1007.06 24.5129 945.724L215.574 479.074C240.685 417.742 211.322 347.665 149.989 322.554Z"
              fill="url(#paint1_linear)"/>
        <path d="M1732.25 310.174L1926.67 -143.694C1952.77 -204.614 2023.31 -232.845 2084.23 -206.749L2547.74 -8.19924C2608.66 17.8965 2636.89 88.4369 2610.79 149.357L2416.37 603.225C2390.28 664.145 2319.74 692.376 2258.82 666.28L1795.31 467.73C1734.39 441.634 1706.15 371.094 1732.25 310.174Z"
              fill="url(#paint2_linear)"/>
        <path d="M1929.48 594.004L2135.09 145.093C2162.69 84.8384 2233.91 58.3643 2294.16 85.9616L2752.61 295.937C2812.87 323.534 2839.34 394.752 2811.74 455.007L2606.14 903.918C2578.54 964.173 2507.32 990.647 2447.07 963.05L1988.62 753.075C1928.36 725.478 1901.89 654.259 1929.48 594.004Z"
              fill="url(#paint3_linear)"/>
    </g>
    <defs>
        <linearGradient id="paint0_linear" x1="385.499" y1="319.5" x2="-374" y2="520.5" gradientUnits="userSpaceOnUse">
            <stop stop-color="#17142E"/>
            <stop offset="1" stop-color="#3C3662"/>
        </linearGradient>
        <linearGradient id="paint1_linear" x1="168.5" y1="533.001" x2="-143.5" y2="257" gradientUnits="userSpaceOnUse">
            <stop stop-color="#18142F"/>
            <stop offset="1" stop-color="#3C3662"/>
        </linearGradient>
        <linearGradient id="paint2_linear" x1="2196.02" y1="-34.5077" x2="1946.52" y2="448.492"
                        gradientUnits="userSpaceOnUse">
            <stop stop-color="#3C3662"/>
            <stop offset="1" stop-color="#272344"/>
        </linearGradient>
        <linearGradient id="paint3_linear" x1="2059.84" y1="760.253" x2="2098.88" y2="345.529"
                        gradientUnits="userSpaceOnUse">
            <stop stop-color="#262243"/>
            <stop offset="1" stop-color="#272345" stop-opacity="0.5"/>
        </linearGradient>
    </defs>
</svg>
